<svg width="26" height="23" viewBox="0 0 26 23" fill="none" xmlns="http://www.w3.org/2000/svg">
<path d="M5.66895 5.76367C6.15661 5.62424 6.5965 5.80189 6.71875 5.84766C8.44138 6.49273 9.30316 7.95646 9.7334 8.59375C10.4268 9.62105 11.1222 11.0751 11.6572 12.0469C12.291 13.1979 12.949 14.5886 13.3613 15.75C13.7331 16.7973 13.8659 18.2087 13.9844 18.9482C14.0242 19.1973 14.0544 19.5292 14.0195 19.8789C13.9854 20.2211 13.8808 20.6634 13.5811 21.0498C13.3553 21.3406 13.067 21.5889 12.7041 21.7285C12.3341 21.8707 11.9666 21.8693 11.6416 21.792C11.0514 21.6514 10.5577 21.248 10.2197 20.9365C9.87757 20.6212 9.49145 20.1971 9.24805 19.9512C9.10861 19.8103 8.99724 19.7058 8.90723 19.6338C8.86568 19.6006 8.83761 19.5824 8.82324 19.5732C8.7795 19.5692 8.62412 19.5711 8.26562 19.7285C7.84045 19.9152 7.31008 20.2372 6.60742 20.6895C5.73122 21.2534 4.75815 21.9432 3.37695 22.2744C2.52436 22.4788 1.93137 21.9073 1.7793 21.7666L1.7041 21.6973L1.64453 21.6143C1.07524 20.818 0.588042 20.0226 0.381836 18.8486L0.371094 18.7881L0.368164 18.7266C0.35244 18.4192 0.342951 17.999 0.333984 17.5488C0.246943 17.471 0.170603 17.3771 0.113281 17.2676C-0.142381 16.7782 0.047731 16.1738 0.537109 15.918C0.744387 15.8096 1.53168 15.4172 2.31348 15.0332C2.77112 14.8084 3.05424 14.6792 3.32812 14.541C3.45201 14.4785 3.54134 14.4304 3.60645 14.3906C3.6731 14.3499 3.693 14.3317 3.68945 14.335C3.70685 14.3187 3.77207 14.2428 3.81543 13.998C3.85861 13.7538 3.8628 13.4368 3.83887 13.0508C3.81393 12.649 3.7701 12.2977 3.7334 11.874C3.70194 11.5107 3.67088 11.0543 3.74023 10.6621C3.85324 10.0239 4.09225 8.50751 4.64746 6.84473C4.78848 6.4224 5.07945 5.93237 5.66895 5.76367ZM6.40918 7.90332C6.00401 9.23196 5.8165 10.409 5.70996 11.0107C5.69255 11.1095 5.69236 11.3175 5.72559 11.7012C5.75362 12.0247 5.80876 12.5053 5.83496 12.9277C5.86212 13.366 5.86956 13.8682 5.78516 14.3457C5.70084 14.8224 5.50779 15.3731 5.05371 15.7969C4.81079 16.0235 4.4952 16.1931 4.22949 16.3271C3.966 16.4601 3.56691 16.6451 3.19434 16.8281C2.89104 16.9771 2.59235 17.1276 2.32812 17.2588C2.33759 17.767 2.34725 18.2285 2.3623 18.5566C2.48413 19.2012 2.73015 19.6702 3.1416 20.2646C4.00363 20.0137 4.64329 19.5756 5.52539 19.0078C6.21405 18.5646 6.86996 18.1571 7.46094 17.8975C8.033 17.6462 8.74741 17.4393 9.46387 17.6758C9.74843 17.7698 9.98618 17.9354 10.1572 18.0723C10.3378 18.2167 10.5122 18.3855 10.6689 18.5439C11.0185 18.8971 11.2689 19.1835 11.5752 19.4658C11.775 19.65 11.9174 19.7478 12.0059 19.7988C12.0128 19.7756 12.0236 19.7378 12.0293 19.6807C12.0418 19.5546 12.0321 19.4046 12.0098 19.2646C11.8542 18.2934 11.7667 17.2375 11.4766 16.4199C11.1103 15.3883 10.5034 14.0981 9.90527 13.0117C9.2725 11.8624 8.7044 10.645 8.0752 9.71289C7.63256 9.05725 7.17957 8.33427 6.40918 7.90332ZM14.5977 0C14.8527 0 15.1983 0.0633786 15.5107 0.131836C15.8544 0.207147 16.2625 0.312674 16.6865 0.439453C17.5161 0.687493 18.4936 1.04056 19.1904 1.43945C19.6614 1.70916 20.3475 2.28046 20.9951 2.86914C21.6665 3.47947 22.3825 4.18871 22.9316 4.79785C23.4527 5.37584 23.7792 6.1329 24.0547 6.85645C24.3517 7.63651 24.6001 8.40509 24.9854 9.30273L24.9941 9.32324L25.002 9.34473C25.0945 9.59032 25.166 9.81601 25.209 10.0947C25.2486 10.3522 25.2594 10.6288 25.2666 10.9619C25.2814 11.6427 25.2813 12.7848 25.2812 13.9414C25.2812 14.4937 24.8335 14.9414 24.2812 14.9414C23.7293 14.941 23.2812 14.4935 23.2812 13.9414C23.2812 12.773 23.2818 11.6582 23.2676 11.0049C23.2603 10.6711 23.25 10.5133 23.2324 10.3994C23.2184 10.3082 23.1962 10.2256 23.1328 10.0566C22.7365 9.12812 22.4345 8.22234 22.1855 7.56836C21.9119 6.84965 21.6936 6.41102 21.4463 6.13672C20.9499 5.58605 20.2829 4.92358 19.6504 4.34863C18.9944 3.75236 18.4552 3.32363 18.1973 3.17578C17.7021 2.89229 16.8992 2.59045 16.1133 2.35547C15.7301 2.24092 15.3711 2.14809 15.083 2.08496C14.9389 2.05339 14.8182 2.03101 14.7256 2.0166C14.6241 2.00082 14.5881 2.00001 14.5977 2C14.0455 1.99983 13.5977 1.55218 13.5977 1C13.5977 0.447822 14.0455 0.000173136 14.5977 0ZM13.4951 6.62695C13.6198 6.08903 14.1574 5.75342 14.6953 5.87793C15.0849 5.96828 15.9426 6.32976 16.7217 6.86426C17.3924 7.32453 17.9274 7.97443 18.3975 8.57324L18.8486 9.14648L18.9531 9.27539L19.0098 9.43164C19.2951 10.2114 19.4376 10.9043 19.4951 11.5146L19.5146 11.7715L19.5156 11.7852V11.7998C19.5278 12.191 19.5283 12.7433 19.5283 13.2861C19.528 13.838 19.0802 14.2859 18.5283 14.2861C17.9762 14.2861 17.5286 13.8382 17.5283 13.2861C17.5283 12.7342 17.5273 12.2225 17.5166 11.8701C17.4887 11.4264 17.3984 10.8946 17.1816 10.2637C16.515 9.43006 16.1398 8.8905 15.5908 8.51367C15.2929 8.30929 14.9798 8.13991 14.7158 8.0166C14.585 7.95554 14.4708 7.90775 14.3818 7.87402C14.2949 7.84109 14.2501 7.82886 14.2441 7.82715C13.7063 7.7025 13.3708 7.16475 13.4951 6.62695Z" fill="#373635" style="fill:#373635;fill:color(display-p3 0.2137 0.2123 0.2089);fill-opacity:1;"/>
</svg>
